<mxfile host="app.diagrams.net" modified="2022-11-25T10:18:17.663Z" agent="5.0 (Windows NT 10.0; Win64; x64) AppleWebKit/537.36 (KHTML, like Gecko) Chrome/107.0.0.0 Safari/537.36 Edg/107.0.1418.35" etag="SIZIdmixCtE58-zf9Rbe" version="20.6.0" type="github">
  <diagram name="Page-1" id="13e1069c-82ec-6db2-03f1-153e76fe0fe0">
    <mxGraphModel dx="1167" dy="681" grid="1" gridSize="10" guides="1" tooltips="1" connect="1" arrows="1" fold="1" page="1" pageScale="1" pageWidth="1100" pageHeight="850" background="none" math="0" shadow="0">
      <root>
        <mxCell id="0" />
        <mxCell id="1" parent="0" />
        <mxCell id="7baba1c4bc27f4b0-2" value="蜂助手接口服务" style="shape=umlLifeline;perimeter=lifelinePerimeter;whiteSpace=wrap;html=1;container=1;collapsible=0;recursiveResize=0;outlineConnect=0;rounded=1;shadow=0;comic=0;labelBackgroundColor=none;strokeWidth=1;fontFamily=Verdana;fontSize=12;align=center;fillColor=#fff2cc;strokeColor=#d6b656;" parent="1" vertex="1">
          <mxGeometry x="460" y="80" width="100" height="790" as="geometry" />
        </mxCell>
        <mxCell id="nouI0P9jKy7tljV9Is1l-20" value="" style="html=1;points=[];perimeter=orthogonalPerimeter;fontSize=14;fillColor=#d5e8d4;strokeColor=#82b366;" vertex="1" parent="7baba1c4bc27f4b0-2">
          <mxGeometry x="44.06" y="160.64" width="10" height="80" as="geometry" />
        </mxCell>
        <mxCell id="nouI0P9jKy7tljV9Is1l-30" value="" style="html=1;points=[];perimeter=orthogonalPerimeter;fontSize=14;fillColor=#d5e8d4;strokeColor=#82b366;" vertex="1" parent="7baba1c4bc27f4b0-2">
          <mxGeometry x="44.06" y="330" width="10" height="80" as="geometry" />
        </mxCell>
        <mxCell id="nouI0P9jKy7tljV9Is1l-32" value="调用广州电信芝麻go业务办理接口" style="html=1;verticalAlign=bottom;endArrow=block;rounded=0;fontSize=14;" edge="1" parent="7baba1c4bc27f4b0-2" target="7baba1c4bc27f4b0-3">
          <mxGeometry width="80" relative="1" as="geometry">
            <mxPoint x="60" y="350" as="sourcePoint" />
            <mxPoint x="140" y="350" as="targetPoint" />
          </mxGeometry>
        </mxCell>
        <mxCell id="nouI0P9jKy7tljV9Is1l-50" value="" style="html=1;points=[];perimeter=orthogonalPerimeter;fontSize=14;fillColor=#d5e8d4;strokeColor=#82b366;" vertex="1" parent="7baba1c4bc27f4b0-2">
          <mxGeometry x="45" y="710" width="10" height="80" as="geometry" />
        </mxCell>
        <mxCell id="nouI0P9jKy7tljV9Is1l-51" value="调用查单接口进行查单" style="html=1;verticalAlign=bottom;startArrow=oval;startFill=1;endArrow=block;startSize=8;rounded=0;fontSize=14;" edge="1" parent="7baba1c4bc27f4b0-2">
          <mxGeometry width="60" relative="1" as="geometry">
            <mxPoint x="70" y="770" as="sourcePoint" />
            <mxPoint x="270" y="770" as="targetPoint" />
          </mxGeometry>
        </mxCell>
        <mxCell id="7baba1c4bc27f4b0-3" value="广州电信接口" style="shape=umlLifeline;perimeter=lifelinePerimeter;whiteSpace=wrap;html=1;container=1;collapsible=0;recursiveResize=0;outlineConnect=0;rounded=1;shadow=0;comic=0;labelBackgroundColor=none;strokeWidth=1;fontFamily=Verdana;fontSize=12;align=center;fillColor=#fff2cc;strokeColor=#d6b656;" parent="1" vertex="1">
          <mxGeometry x="700" y="80" width="100" height="770" as="geometry" />
        </mxCell>
        <mxCell id="7baba1c4bc27f4b0-13" value="" style="html=1;points=[];perimeter=orthogonalPerimeter;rounded=0;shadow=0;comic=0;labelBackgroundColor=none;strokeWidth=1;fontFamily=Verdana;fontSize=12;align=center;fillColor=#d5e8d4;strokeColor=#82b366;" parent="7baba1c4bc27f4b0-3" vertex="1">
          <mxGeometry x="45" y="345" width="10" height="145" as="geometry" />
        </mxCell>
        <mxCell id="nouI0P9jKy7tljV9Is1l-37" value="进行业务办理" style="edgeStyle=orthogonalEdgeStyle;html=1;align=left;spacingLeft=2;endArrow=block;rounded=0;entryX=1;entryY=0;fontSize=14;" edge="1" parent="7baba1c4bc27f4b0-3">
          <mxGeometry relative="1" as="geometry">
            <mxPoint x="55" y="380" as="sourcePoint" />
            <Array as="points">
              <mxPoint x="85" y="380" />
            </Array>
            <mxPoint x="60" y="400" as="targetPoint" />
          </mxGeometry>
        </mxCell>
        <mxCell id="nouI0P9jKy7tljV9Is1l-47" value="" style="html=1;points=[];perimeter=orthogonalPerimeter;fontSize=14;fillColor=#d5e8d4;strokeColor=#82b366;" vertex="1" parent="7baba1c4bc27f4b0-3">
          <mxGeometry x="45" y="670" width="10" height="100" as="geometry" />
        </mxCell>
        <mxCell id="7baba1c4bc27f4b0-4" value="支付宝芝麻信用" style="shape=umlLifeline;perimeter=lifelinePerimeter;whiteSpace=wrap;html=1;container=1;collapsible=0;recursiveResize=0;outlineConnect=0;rounded=1;shadow=0;comic=0;labelBackgroundColor=none;strokeWidth=1;fontFamily=Verdana;fontSize=12;align=center;fillColor=#fff2cc;strokeColor=#d6b656;" parent="1" vertex="1">
          <mxGeometry x="930" y="80" width="100" height="690" as="geometry" />
        </mxCell>
        <mxCell id="nouI0P9jKy7tljV9Is1l-42" value="" style="html=1;points=[];perimeter=orthogonalPerimeter;fontSize=14;fillColor=#d5e8d4;strokeColor=#82b366;" vertex="1" parent="7baba1c4bc27f4b0-4">
          <mxGeometry x="45" y="540" width="10" height="150" as="geometry" />
        </mxCell>
        <mxCell id="7baba1c4bc27f4b0-8" value="前端H5页面" style="shape=umlLifeline;perimeter=lifelinePerimeter;whiteSpace=wrap;html=1;container=1;collapsible=0;recursiveResize=0;outlineConnect=0;rounded=1;shadow=0;comic=0;labelBackgroundColor=none;strokeWidth=1;fontFamily=Verdana;fontSize=12;align=center;fillColor=#fff2cc;strokeColor=#d6b656;" parent="1" vertex="1">
          <mxGeometry x="250" y="80" width="100" height="580" as="geometry" />
        </mxCell>
        <mxCell id="nouI0P9jKy7tljV9Is1l-4" value="" style="html=1;points=[];perimeter=orthogonalPerimeter;fillColor=#d5e8d4;strokeColor=#82b366;" vertex="1" parent="7baba1c4bc27f4b0-8">
          <mxGeometry x="45" y="100" width="10" height="80" as="geometry" />
        </mxCell>
        <mxCell id="nouI0P9jKy7tljV9Is1l-14" value="调用号段库接口，&lt;br&gt;判断是否广州电信手机号" style="edgeStyle=orthogonalEdgeStyle;html=1;align=left;spacingLeft=2;endArrow=block;rounded=0;entryX=1;entryY=0;fontSize=14;" edge="1" parent="7baba1c4bc27f4b0-8">
          <mxGeometry relative="1" as="geometry">
            <mxPoint x="55" y="110" as="sourcePoint" />
            <Array as="points">
              <mxPoint x="85" y="110" />
            </Array>
            <mxPoint x="60" y="130" as="targetPoint" />
          </mxGeometry>
        </mxCell>
        <mxCell id="nouI0P9jKy7tljV9Is1l-27" value="" style="html=1;points=[];perimeter=orthogonalPerimeter;fontSize=14;fillColor=#d5e8d4;strokeColor=#82b366;" vertex="1" parent="7baba1c4bc27f4b0-8">
          <mxGeometry x="45" y="305" width="10" height="80" as="geometry" />
        </mxCell>
        <mxCell id="nouI0P9jKy7tljV9Is1l-41" value="" style="html=1;points=[];perimeter=orthogonalPerimeter;fontSize=14;fillColor=#d5e8d4;strokeColor=#82b366;" vertex="1" parent="7baba1c4bc27f4b0-8">
          <mxGeometry x="45" y="460" width="10" height="90" as="geometry" />
        </mxCell>
        <mxCell id="nouI0P9jKy7tljV9Is1l-2" value="用户" style="shape=umlLifeline;perimeter=lifelinePerimeter;whiteSpace=wrap;html=1;container=1;collapsible=0;recursiveResize=0;outlineConnect=0;rounded=1;shadow=0;comic=0;labelBackgroundColor=none;strokeWidth=1;fontFamily=Verdana;fontSize=12;align=center;fillColor=#fff2cc;strokeColor=#d6b656;" vertex="1" parent="1">
          <mxGeometry x="50" y="80" width="100" height="650" as="geometry" />
        </mxCell>
        <mxCell id="nouI0P9jKy7tljV9Is1l-3" value="" style="html=1;points=[];perimeter=orthogonalPerimeter;fillColor=#d5e8d4;strokeColor=#82b366;" vertex="1" parent="nouI0P9jKy7tljV9Is1l-2">
          <mxGeometry x="45" y="90" width="10" height="50" as="geometry" />
        </mxCell>
        <mxCell id="nouI0P9jKy7tljV9Is1l-29" value="" style="html=1;points=[];perimeter=orthogonalPerimeter;fontSize=14;fillColor=#d5e8d4;strokeColor=#82b366;" vertex="1" parent="nouI0P9jKy7tljV9Is1l-2">
          <mxGeometry x="45" y="290" width="10" height="80" as="geometry" />
        </mxCell>
        <mxCell id="nouI0P9jKy7tljV9Is1l-44" value="" style="html=1;points=[];perimeter=orthogonalPerimeter;fontSize=14;fillColor=#d5e8d4;strokeColor=#82b366;" vertex="1" parent="nouI0P9jKy7tljV9Is1l-2">
          <mxGeometry x="44" y="570" width="10" height="80" as="geometry" />
        </mxCell>
        <mxCell id="nouI0P9jKy7tljV9Is1l-46" value="用户点击授信，签约成功" style="html=1;verticalAlign=bottom;startArrow=oval;startFill=1;endArrow=block;startSize=8;rounded=0;fontSize=14;" edge="1" parent="nouI0P9jKy7tljV9Is1l-2" target="7baba1c4bc27f4b0-4">
          <mxGeometry width="60" relative="1" as="geometry">
            <mxPoint x="60" y="610" as="sourcePoint" />
            <mxPoint x="120" y="610" as="targetPoint" />
          </mxGeometry>
        </mxCell>
        <mxCell id="nouI0P9jKy7tljV9Is1l-5" value="用户进入h5页面" style="html=1;verticalAlign=bottom;startArrow=oval;endArrow=block;startSize=8;rounded=0;" edge="1" target="nouI0P9jKy7tljV9Is1l-4" parent="1">
          <mxGeometry relative="1" as="geometry">
            <mxPoint x="100" y="180" as="sourcePoint" />
            <Array as="points">
              <mxPoint x="170" y="180" />
            </Array>
          </mxGeometry>
        </mxCell>
        <mxCell id="nouI0P9jKy7tljV9Is1l-7" value="" style="shape=actor;whiteSpace=wrap;html=1;fillColor=#dae8fc;strokeColor=#6c8ebf;" vertex="1" parent="1">
          <mxGeometry x="50" y="40" width="15" height="30" as="geometry" />
        </mxCell>
        <mxCell id="nouI0P9jKy7tljV9Is1l-11" value="输入手机号，获取验证码" style="text;html=1;strokeColor=none;fillColor=none;align=center;verticalAlign=middle;whiteSpace=wrap;rounded=0;fontSize=14;" vertex="1" parent="1">
          <mxGeometry x="140" y="190" width="120" height="10" as="geometry" />
        </mxCell>
        <mxCell id="nouI0P9jKy7tljV9Is1l-18" value="" style="html=1;verticalAlign=bottom;endArrow=open;dashed=1;endSize=8;exitX=0;exitY=0.95;rounded=0;fontSize=14;" edge="1" parent="1">
          <mxGeometry relative="1" as="geometry">
            <mxPoint x="165" y="250" as="targetPoint" />
            <mxPoint x="235" y="250" as="sourcePoint" />
          </mxGeometry>
        </mxCell>
        <mxCell id="nouI0P9jKy7tljV9Is1l-19" value="返回不是广州电信号码提示" style="text;html=1;align=center;verticalAlign=middle;resizable=0;points=[];autosize=1;strokeColor=none;fillColor=none;fontSize=14;" vertex="1" parent="1">
          <mxGeometry x="105" y="225" width="190" height="30" as="geometry" />
        </mxCell>
        <mxCell id="nouI0P9jKy7tljV9Is1l-21" value="调用蜂助手短信验证码接口" style="html=1;verticalAlign=bottom;startArrow=oval;endArrow=block;startSize=8;rounded=0;fontSize=14;" edge="1" parent="1">
          <mxGeometry relative="1" as="geometry">
            <mxPoint x="310" y="250" as="sourcePoint" />
            <mxPoint x="495" y="250" as="targetPoint" />
          </mxGeometry>
        </mxCell>
        <mxCell id="nouI0P9jKy7tljV9Is1l-26" value="返回验证码" style="html=1;verticalAlign=bottom;endArrow=open;dashed=1;endSize=8;rounded=0;fontSize=14;" edge="1" parent="1">
          <mxGeometry relative="1" as="geometry">
            <mxPoint x="160" y="310" as="targetPoint" />
            <mxPoint x="440" y="310" as="sourcePoint" />
          </mxGeometry>
        </mxCell>
        <mxCell id="nouI0P9jKy7tljV9Is1l-28" value="输入验证码，点击领取" style="html=1;verticalAlign=bottom;startArrow=oval;endArrow=block;startSize=8;rounded=0;fontSize=14;" edge="1" target="nouI0P9jKy7tljV9Is1l-27" parent="1" source="nouI0P9jKy7tljV9Is1l-2">
          <mxGeometry relative="1" as="geometry">
            <mxPoint x="450" y="300" as="sourcePoint" />
          </mxGeometry>
        </mxCell>
        <mxCell id="nouI0P9jKy7tljV9Is1l-31" value="调起订单接口" style="html=1;verticalAlign=bottom;startArrow=oval;endArrow=block;startSize=8;rounded=0;fontSize=14;" edge="1" target="nouI0P9jKy7tljV9Is1l-30" parent="1">
          <mxGeometry relative="1" as="geometry">
            <mxPoint x="298.38352941176464" y="410" as="sourcePoint" />
          </mxGeometry>
        </mxCell>
        <mxCell id="nouI0P9jKy7tljV9Is1l-33" value="传入：orderid（分销订单号），&#xa;accNbr（手机号），&#xa;productId（产品id）&#xa;returnUrl（签约返回连接）" style="text;align=center;fontStyle=1;verticalAlign=middle;spacingLeft=3;spacingRight=3;strokeColor=none;rotatable=0;points=[[0,0.5],[1,0.5]];portConstraint=eastwest;fontSize=14;" vertex="1" parent="1">
          <mxGeometry x="590" y="440" width="110" height="80" as="geometry" />
        </mxCell>
        <mxCell id="nouI0P9jKy7tljV9Is1l-40" value="业务办理下单发，&lt;span style=&quot;color: rgb(57, 56, 56); font-family: -apple-system, BlinkMacSystemFont, &amp;quot;Segoe UI&amp;quot;, Roboto, &amp;quot;Helvetica Neue&amp;quot;, Helvetica, &amp;quot;PingFang SC&amp;quot;, &amp;quot;Hiragino Sans GB&amp;quot;, &amp;quot;Microsoft YaHei&amp;quot;, SimSun, sans-serif; font-size: 13px; text-align: start;&quot;&gt;签约的URL，&lt;br&gt;在浏览器访问这个URL会跳转到支付宝APP完成签约操作&lt;/span&gt;" style="html=1;verticalAlign=bottom;endArrow=open;dashed=1;endSize=8;exitX=0;exitY=0.95;rounded=0;fontSize=14;" edge="1" parent="1" target="7baba1c4bc27f4b0-8">
          <mxGeometry relative="1" as="geometry">
            <mxPoint x="640" y="560" as="targetPoint" />
            <mxPoint x="710" y="559.9999999999998" as="sourcePoint" />
          </mxGeometry>
        </mxCell>
        <mxCell id="nouI0P9jKy7tljV9Is1l-43" value="前端根据下单返回的签约地址，跳转支付宝，完成授信签约操作" style="html=1;verticalAlign=bottom;startArrow=oval;endArrow=block;startSize=8;rounded=0;fontSize=14;" edge="1" target="nouI0P9jKy7tljV9Is1l-42" parent="1" source="7baba1c4bc27f4b0-8">
          <mxGeometry relative="1" as="geometry">
            <mxPoint x="360" y="620" as="sourcePoint" />
          </mxGeometry>
        </mxCell>
        <mxCell id="nouI0P9jKy7tljV9Is1l-48" value="授信成功，进行业务办理" style="html=1;verticalAlign=bottom;endArrow=open;dashed=1;endSize=8;rounded=0;fontSize=14;" edge="1" parent="1">
          <mxGeometry relative="1" as="geometry">
            <mxPoint x="760" y="760" as="targetPoint" />
            <mxPoint x="970" y="760" as="sourcePoint" />
          </mxGeometry>
        </mxCell>
        <mxCell id="nouI0P9jKy7tljV9Is1l-49" value="订单状态回调，通知" style="html=1;verticalAlign=bottom;endArrow=open;dashed=1;endSize=8;rounded=0;fontSize=14;" edge="1" parent="1">
          <mxGeometry relative="1" as="geometry">
            <mxPoint x="540" y="800" as="targetPoint" />
            <mxPoint x="750" y="800" as="sourcePoint" />
          </mxGeometry>
        </mxCell>
      </root>
    </mxGraphModel>
  </diagram>
</mxfile>
